<svg xmlns="http://www.w3.org/2000/svg" xmlns:xlink="http://www.w3.org/1999/xlink" width="69" height="69" viewBox="0 0 69 69">
  <defs>
    <filter id="Ellipse_8" x="0" y="0" width="69" height="69" filterUnits="userSpaceOnUse">
      <feOffset dy="3" input="SourceAlpha"/>
      <feGaussianBlur stdDeviation="3" result="blur"/>
      <feFlood flood-opacity="0.161"/>
      <feComposite operator="in" in2="blur"/>
      <feComposite in="SourceGraphic"/>
    </filter>
  </defs>
  <g id="Component_40_4" data-name="Component 40 – 4" transform="translate(9 6)">
    <g transform="matrix(1, 0, 0, 1, -9, -6)" filter="url(#Ellipse_8)">
      <circle id="Ellipse_8-2" data-name="Ellipse 8" cx="25.5" cy="25.5" r="25.5" transform="translate(9 6)" fill="#e34747"/>
    </g>
    <g id="Component_36_2" data-name="Component 36 – 2" transform="translate(11.797 11.667)">
      <g id="iconmonstr-magnifier-2">
        <path id="iconmonstr-magnifier-2-2" data-name="iconmonstr-magnifier-2" d="M25.012,22.849,18.494,16.3a10.21,10.21,0,1,0-8.272,4.242,10.134,10.134,0,0,0,5.764-1.792l6.553,6.585,2.473-2.485ZM3,10.271a7.225,7.225,0,1,1,7.225,7.259A7.25,7.25,0,0,1,3,10.271Z" fill="#fff"/>
      </g>
      <path id="iconmonstr-x-mark-1" d="M9.8,8.242,6.4,4.89,9.751,1.509,8.242,0,4.889,3.4,1.5.047,0,1.544,3.4,4.907.047,8.3l1.5,1.5L4.906,6.4,8.288,9.751Z" transform="translate(5.158 5.736)" fill="#fff"/>
    </g>
  </g>
</svg>
