<svg xmlns="http://www.w3.org/2000/svg" xmlns:xlink="http://www.w3.org/1999/xlink" width="69" height="69" viewBox="0 0 69 69">
  <defs>
    <filter id="Ellipse_7" x="0" y="0" width="69" height="69" filterUnits="userSpaceOnUse">
      <feOffset dy="3" input="SourceAlpha"/>
      <feGaussianBlur stdDeviation="3" result="blur"/>
      <feFlood flood-opacity="0.161"/>
      <feComposite operator="in" in2="blur"/>
      <feComposite in="SourceGraphic"/>
    </filter>
  </defs>
  <g id="Component_41_4" data-name="Component 41 – 4" transform="translate(9 6)">
    <g transform="matrix(1, 0, 0, 1, -9, -6)" filter="url(#Ellipse_7)">
      <circle id="Ellipse_7-2" data-name="Ellipse 7" cx="25.5" cy="25.5" r="25.5" transform="translate(9 6)" fill="#73c167"/>
    </g>
    <g id="_6768c03c3e3cb92f67ae876c4a8c74f1" data-name="6768c03c3e3cb92f67ae876c4a8c74f1" transform="translate(0.601 0.96)">
      <path id="Path_14" data-name="Path 14" d="M29.148,32.548a18.2,18.2,0,0,1-2.347,4.04c.366.086.718.18,1.073.245.65.118,1.3.21,1.951.328a.379.379,0,0,0,.434-.207A34.179,34.179,0,0,0,33.5,30.777c.346-.845.641-1.711.961-2.568.033-.086.065-.174.1-.278.7.242,1.383.476,2.1.724-.127.375-.245.73-.369,1.082a37.76,37.76,0,0,1-4.194,8.47c-.148.219-.316.426-.461.644a1.364,1.364,0,0,1-1.392.606,25.512,25.512,0,0,1-6.594-1.534,22.873,22.873,0,0,1-9.853-6.9,1.136,1.136,0,0,1-.2-1.265,1.088,1.088,0,0,1,1.052-.641,16.936,16.936,0,0,0,5.828-1.141,10.46,10.46,0,0,0,4.436-2.938c.346-.408.627-.869.952-1.327L27.809,24.8c-.361.52-.68,1.043-1.058,1.519a11.09,11.09,0,0,1-3.372,2.766,18.828,18.828,0,0,1-6.227,2.057c-.044.006-.086.015-.192.035.313.287.576.553.866.789.544.44,1.094.869,1.658,1.28a.594.594,0,0,0,.437.083,6.384,6.384,0,0,0,3.012-1.5,8.735,8.735,0,0,1-1.776,2.5c.624.31,1.256.585,1.844.928a2.315,2.315,0,0,0,2.237,0,13.477,13.477,0,0,0,3.381-2.246c.168-.145.331-.293.529-.467Zm8.187-5.76-10.61-4.72A3.279,3.279,0,0,1,28.1,20.5a3.4,3.4,0,0,1,3.227-.2c1.416.618,2.831,1.238,4.235,1.889a3.45,3.45,0,0,1,1.921,4.185c-.038.133-.092.263-.148.414Zm-1.575-6.18c-1.117-.5-2.22-.987-3.319-1.481a.336.336,0,0,1-.071-.065c.041-.083.08-.168.124-.248l4.141-7.764a.824.824,0,0,1,1-.491,1.755,1.755,0,0,1,1.141.621.75.75,0,0,1,.136.792q-1.547,4.251-3.08,8.509c-.015.033-.035.065-.068.127ZM18.922,23.341a2.789,2.789,0,1,1-2.752-2.834,2.81,2.81,0,0,1,2.752,2.834Zm-7.244-8.4a1.67,1.67,0,0,1,0,3.34A1.69,1.69,0,0,1,10,16.606a1.671,1.671,0,0,1,1.679-1.667Zm3.907,2.222a1.113,1.113,0,1,1,2.225.012,1.133,1.133,0,0,1-1.108,1.1,1.112,1.112,0,0,1-1.117-1.114Z" transform="translate(0 0)" fill="#fff"/>
    </g>
  </g>
</svg>
